<?xml version="1.0"?><svg xmlns="http://www.w3.org/2000/svg"  viewBox="0 0 64 64" width="64px" height="64px">    <path d="M 23.257812 3 C 22.644812 3 22.073406 3.2758594 21.691406 3.7558594 C 21.309406 4.2368594 21.169266 4.8528125 21.322266 5.5078125 L 27.501953 26.455078 C 22.573959 26.631549 18.570757 26.836258 15.580078 27.068359 L 8.1386719 15.925781 C 7.7676719 15.345781 7.1391719 15 6.4511719 15 L 4.2578125 15 C 3.6448125 15 3.0724063 15.275859 2.6914062 15.755859 C 2.3094063 16.236859 2.1706875 16.853594 2.3046875 17.433594 L 5 30.105469 L 5 33.894531 L 2.3085938 46.550781 C 2.1715938 47.146781 2.3094062 47.764141 2.6914062 48.244141 C 3.0724063 48.724141 3.6448125 49 4.2578125 49 L 6.4511719 49 C 7.1391719 49 7.7689531 48.65475 8.1269531 48.09375 L 15.580078 36.931641 C 18.570757 37.163742 22.573959 37.368451 27.501953 37.544922 L 21.308594 58.550781 C 21.171594 59.146781 21.309406 59.764141 21.691406 60.244141 C 22.072406 60.724141 22.644813 61 23.257812 61 L 27.451172 61 C 28.139172 61 28.769609 60.653813 29.099609 60.132812 L 45.539062 37.951172 C 49.960069 37.9988 52.941447 38 53 38 C 56.051 38 62 34.761 62 32 C 62 29.239 56.051 26 53 26 C 52.941454 26 49.961075 26.001219 45.541016 26.048828 L 29.138672 3.9257812 C 28.767672 3.3457812 28.139172 3 27.451172 3 L 23.257812 3 z M 23.257812 5 L 27.490234 5.0585938 L 43.078125 26.085938 C 39.054435 26.139086 34.389737 26.221466 29.5625 26.375 L 23.257812 5 z M 4.2578125 17 L 6.4628906 17.019531 L 13.302734 27.261719 C 9.8537331 27.592641 7.8453295 27.962208 6.671875 28.347656 L 4.2578125 17 z M 53 28 C 55.661 28 60 30.922 60 32 C 60 33.078 55.661 36 53 36 C 32.581 36 9.891 35.181156 7 33.660156 L 7 30.339844 C 9.891 28.818844 32.581 28 53 28 z M 12 30 C 11.447 30 11 30.447 11 31 L 11 33 C 11 33.553 11.447 34 12 34 C 12.553 34 13 33.553 13 33 L 13 31 C 13 30.447 12.553 30 12 30 z M 17 30 C 16.447 30 16 30.447 16 31 L 16 33 C 16 33.553 16.447 34 17 34 C 17.553 34 18 33.553 18 33 L 18 31 C 18 30.447 17.553 30 17 30 z M 22 30 C 21.447 30 21 30.447 21 31 L 21 33 C 21 33.553 21.447 34 22 34 C 22.553 34 23 33.553 23 33 L 23 31 C 23 30.447 22.553 30 22 30 z M 27 30 C 26.447 30 26 30.447 26 31 L 26 33 C 26 33.553 26.447 34 27 34 C 27.553 34 28 33.553 28 33 L 28 31 C 28 30.447 27.553 30 27 30 z M 32 30 C 31.447 30 31 30.447 31 31 L 31 33 C 31 33.553 31.447 34 32 34 C 32.553 34 33 33.553 33 33 L 33 31 C 33 30.447 32.553 30 32 30 z M 37 30 C 36.447 30 36 30.447 36 31 L 36 33 C 36 33.553 36.447 34 37 34 C 37.553 34 38 33.553 38 33 L 38 31 C 38 30.447 37.553 30 37 30 z M 42 30 C 41.447 30 41 30.447 41 31 L 41 33 C 41 33.553 41.447 34 42 34 C 42.553 34 43 33.553 43 33 L 43 31 C 43 30.447 42.553 30 42 30 z M 47 30 C 46.447 30 46 30.447 46 31 L 46 33 C 46 33.553 46.447 34 47 34 C 47.553 34 48 33.553 48 33 L 48 31 C 48 30.447 47.553 30 47 30 z M 52 30 C 51.447 30 51 30.447 51 31 L 51 33 C 51 33.553 51.447 34 52 34 C 52.553 34 53 33.553 53 33 L 53 31 C 53 30.447 52.553 30 52 30 z M 6.671875 35.652344 C 7.8453295 36.037792 9.8537331 36.407359 13.302734 36.738281 L 6.4511719 47 L 4.2617188 46.982422 L 6.671875 35.652344 z M 29.5625 37.625 C 34.388982 37.77851 39.052853 37.86091 43.076172 37.914062 L 27.451172 59 L 23.240234 59.058594 L 29.5625 37.625 z"/></svg>