<svg xmlns="http://www.w3.org/2000/svg"  viewBox="0 0 50 50" width="50px" height="50px"><path d="M 8 3 L 8 7 L 5 7 L 5 47 L 29 47 L 29 42.335938 C 29.317955 42.644155 29.650127 42.905701 29.986328 43.107422 C 30.758958 43.570999 31.42402 43.765804 31.931641 43.861328 C 31.351362 45.537816 31 47.268453 31 49 A 1.0001 1.0001 0 1 0 33 49 C 33 47.739091 33.227382 46.4368 33.621094 45.140625 C 34.480279 45.883719 35.613252 46.460763 36.982422 46.773438 C 39.334622 47.310603 42.257219 46.956364 44.675781 44.736328 C 47.292027 42.334729 47.727019 39.333053 47.953125 36.648438 C 48.179231 33.963819 48.266199 31.571249 49.789062 29.613281 A 1.0001 1.0001 0 0 0 49.232422 28.027344 C 47.743435 27.671005 46.336689 27.426836 45 27.269531 L 45 13 L 29 13 L 29 7 L 26 7 L 26 3 L 8 3 z M 10 5 L 24 5 L 24 9 L 25 9 L 27 9 L 27 37 L 27 45 L 19 45 L 19 39 L 15 39 L 15 45 L 7 45 L 7 9 L 10 9 L 10 5 z M 10 11 L 10 13 L 12 13 L 12 11 L 10 11 z M 14 11 L 14 13 L 16 13 L 16 11 L 14 11 z M 18 11 L 18 13 L 20 13 L 20 11 L 18 11 z M 22 11 L 22 13 L 24 13 L 24 11 L 22 11 z M 10 15 L 10 19 L 12 19 L 12 15 L 10 15 z M 14 15 L 14 19 L 16 19 L 16 15 L 14 15 z M 18 15 L 18 19 L 20 19 L 20 15 L 18 15 z M 22 15 L 22 19 L 24 19 L 24 15 L 22 15 z M 29 15 L 43 15 L 43 27.103516 C 42.531372 27.079586 42.064886 27.056978 41.617188 27.056641 C 40.860917 27.05607 40.134156 27.088452 39.4375 27.150391 C 36.77197 27.38738 34.545602 28.062007 32.744141 29 L 31 29 L 31 30.082031 C 30.210919 30.662813 29.554606 31.304557 29 31.974609 L 29 15 z M 31 17 L 31 19 L 33 19 L 33 17 L 31 17 z M 35 17 L 35 19 L 37 19 L 37 17 L 35 17 z M 39 17 L 39 19 L 41 19 L 41 17 L 39 17 z M 10 21 L 10 25 L 12 25 L 12 21 L 10 21 z M 14 21 L 14 25 L 16 25 L 16 21 L 14 21 z M 18 21 L 18 25 L 20 25 L 20 21 L 18 21 z M 22 21 L 22 25 L 24 25 L 24 21 L 22 21 z M 31 21 L 31 23 L 33 23 L 33 21 L 31 21 z M 35 21 L 35 23 L 37 23 L 37 21 L 35 21 z M 39 21 L 39 23 L 41 23 L 41 21 L 39 21 z M 31 25 L 31 27 L 33 27 L 33 25 L 31 25 z M 35 25 L 35 27 L 37 27 L 37 25 L 35 25 z M 39 25 L 39 27 L 41 27 L 41 25 L 39 25 z M 10 27 L 10 31 L 12 31 L 12 27 L 10 27 z M 14 27 L 14 31 L 16 31 L 16 27 L 14 27 z M 18 27 L 18 31 L 20 31 L 20 27 L 18 27 z M 22 27 L 22 31 L 24 31 L 24 27 L 22 27 z M 41.375 29.064453 C 43.17048 29.072825 45.201522 29.305007 47.414062 29.746094 C 46.27603 31.945927 46.140715 34.322736 45.958984 36.480469 C 45.739341 39.088352 45.424973 41.335271 43.324219 43.263672 C 41.405781 45.024636 39.270534 45.245054 37.427734 44.824219 C 36.078517 44.516102 34.952629 43.75201 34.357422 43.164062 C 34.932774 41.845489 35.655786 40.558578 36.490234 39.361328 C 38.545912 36.411883 41.227072 34.003491 43.447266 32.894531 A 1.0001 1.0001 0 0 0 43.005859 30.994141 A 1.0001 1.0001 0 0 0 42.552734 31.105469 C 39.891928 32.434509 37.073682 35.025742 34.849609 38.216797 C 34.030771 39.391651 33.294776 40.649734 32.689453 41.958984 C 32.364061 41.928306 31.761145 41.841095 31.013672 41.392578 C 30.015876 40.7939 29 39.722222 29 37 C 29 34.333333 32.094246 29.793843 39.660156 29.130859 C 40.204357 29.083172 40.776507 29.061663 41.375 29.064453 z M 10 33 L 10 37 L 12 37 L 12 33 L 10 33 z M 14 33 L 14 37 L 16 37 L 16 33 L 14 33 z M 18 33 L 18 37 L 20 37 L 20 33 L 18 33 z M 22 33 L 22 37 L 24 37 L 24 33 L 22 33 z M 10 39 L 10 43 L 12 43 L 12 39 L 10 39 z M 22 39 L 22 43 L 24 43 L 24 39 L 22 39 z"/></svg>