<svg xmlns="http://www.w3.org/2000/svg"  viewBox="0 0 50 50" width="50px" height="50px"><path d="M 24 0 L 24 5 L 17 5 C 16.96875 5 16.9375 5 16.90625 5 C 16.390625 5.046875 15.996094 5.480469 16 6 L 16 11 L 11 11 C 10.449219 11 10 11.449219 10 12 L 10 19.9375 L 5.46875 21.4375 C 3.414063 22.121094 2.453125 24.476563 3.28125 26.40625 C 3.28125 26.417969 3.28125 26.425781 3.28125 26.4375 L 7 34.25 L 7 43.09375 C 5.746094 43.675781 4.195313 43.90625 3.1875 43.90625 C 2.582031 43.90625 2.039063 43.8125 1.40625 43.8125 C 1.046875 43.808594 0.710938 43.996094 0.527344 44.308594 C 0.347656 44.621094 0.347656 45.003906 0.527344 45.316406 C 0.710938 45.628906 1.046875 45.816406 1.40625 45.8125 C 1.773438 45.8125 2.390625 45.90625 3.1875 45.90625 C 4.617188 45.90625 6.652344 45.488281 8.40625 44.4375 C 8.496094 44.398438 8.582031 44.34375 8.65625 44.28125 C 8.664063 44.277344 8.679688 44.285156 8.6875 44.28125 C 10.503906 45.472656 12.675781 45.90625 14.1875 45.90625 C 15.691406 45.90625 17.875 45.457031 19.6875 44.28125 C 21.503906 45.472656 23.675781 45.90625 25.1875 45.90625 C 26.691406 45.90625 28.875 45.457031 30.6875 44.28125 C 32.503906 45.472656 34.675781 45.90625 36.1875 45.90625 C 37.644531 45.90625 39.726563 45.46875 41.5 44.375 C 41.671875 44.472656 41.867188 44.515625 42.0625 44.5 C 43.796875 45.515625 45.777344 45.90625 47.1875 45.90625 C 47.984375 45.90625 48.726563 45.789063 49.375 45.53125 C 49.894531 45.324219 50.144531 44.738281 49.9375 44.21875 C 49.730469 43.699219 49.144531 43.449219 48.625 43.65625 C 48.273438 43.796875 47.792969 43.90625 47.1875 43.90625 C 46.066406 43.90625 44.304688 43.609375 43 42.875 L 43 34.1875 L 46.59375 26.4375 L 46.59375 26.40625 C 47.550781 24.449219 46.441406 22.117188 44.40625 21.4375 L 40 19.96875 L 40 12 C 40 11.449219 39.550781 11 39 11 L 34 11 L 34 6 C 34 5.449219 33.550781 5 33 5 L 26 5 L 26 0 Z M 18 7 L 32 7 L 32 12 C 32 12.550781 32.449219 13 33 13 L 38 13 L 38 19.3125 L 25.3125 15.0625 C 25.152344 15 24.980469 14.976563 24.8125 15 C 24.769531 15.019531 24.726563 15.039063 24.6875 15.0625 L 12 19.28125 L 12 13 L 17 13 C 17.550781 13 18 12.550781 18 12 Z M 25 17.03125 L 43.78125 23.34375 C 44.738281 23.664063 45.230469 24.726563 44.8125 25.5625 C 44.800781 25.574219 44.792969 25.582031 44.78125 25.59375 L 41.09375 33.59375 C 41.035156 33.722656 41.003906 33.859375 41 34 L 41 42.46875 C 39.695313 43.492188 37.492188 43.90625 36.1875 43.90625 C 34.867188 43.90625 32.640625 43.492188 31.34375 42.4375 C 30.972656 42.128906 30.433594 42.128906 30.0625 42.4375 C 28.765625 43.492188 26.507813 43.90625 25.1875 43.90625 C 23.867188 43.90625 21.640625 43.492188 20.34375 42.4375 C 19.972656 42.128906 19.433594 42.128906 19.0625 42.4375 C 17.765625 43.492188 15.507813 43.90625 14.1875 43.90625 C 12.867188 43.90625 10.640625 43.492188 9.34375 42.4375 C 9.242188 42.351563 9.125 42.289063 9 42.25 L 9 34 C 9.003906 33.847656 8.96875 33.699219 8.90625 33.5625 L 5.125 25.59375 C 4.75 24.722656 5.179688 23.660156 6.125 23.34375 Z M 16.5 25 C 15.671875 25 15 26.121094 15 27.5 C 15 28.878906 15.671875 30 16.5 30 C 17.328125 30 18 28.878906 18 27.5 C 18 26.121094 17.328125 25 16.5 25 Z M 33.5 25 C 32.671875 25 32 26.121094 32 27.5 C 32 28.878906 32.671875 30 33.5 30 C 34.328125 30 35 28.878906 35 27.5 C 35 26.121094 34.328125 25 33.5 25 Z M 8.59375 46.1875 C 8.394531 46.214844 8.210938 46.304688 8.0625 46.4375 C 6.765625 47.492188 4.507813 47.90625 3.1875 47.90625 C 2.582031 47.90625 2.039063 47.8125 1.40625 47.8125 C 1.046875 47.808594 0.710938 47.996094 0.527344 48.308594 C 0.347656 48.621094 0.347656 49.003906 0.527344 49.316406 C 0.710938 49.628906 1.046875 49.816406 1.40625 49.8125 C 1.773438 49.8125 2.390625 49.90625 3.1875 49.90625 C 4.691406 49.90625 6.875 49.457031 8.6875 48.28125 C 10.503906 49.472656 12.675781 49.90625 14.1875 49.90625 C 15.691406 49.90625 17.875 49.457031 19.6875 48.28125 C 21.503906 49.472656 23.675781 49.90625 25.1875 49.90625 C 26.691406 49.90625 28.875 49.457031 30.6875 48.28125 C 32.503906 49.472656 34.675781 49.90625 36.1875 49.90625 C 37.691406 49.90625 39.875 49.457031 41.6875 48.28125 C 43.503906 49.472656 45.675781 49.90625 47.1875 49.90625 C 47.984375 49.90625 48.726563 49.789063 49.375 49.53125 C 49.894531 49.324219 50.144531 48.738281 49.9375 48.21875 C 49.730469 47.699219 49.144531 47.449219 48.625 47.65625 C 48.273438 47.796875 47.792969 47.90625 47.1875 47.90625 C 45.867188 47.90625 43.640625 47.492188 42.34375 46.4375 C 41.972656 46.128906 41.433594 46.128906 41.0625 46.4375 C 39.765625 47.492188 37.507813 47.90625 36.1875 47.90625 C 34.867188 47.90625 32.640625 47.492188 31.34375 46.4375 C 30.972656 46.128906 30.433594 46.128906 30.0625 46.4375 C 28.765625 47.492188 26.507813 47.90625 25.1875 47.90625 C 23.867188 47.90625 21.640625 47.492188 20.34375 46.4375 C 19.972656 46.128906 19.433594 46.128906 19.0625 46.4375 C 17.765625 47.492188 15.507813 47.90625 14.1875 47.90625 C 12.867188 47.90625 10.640625 47.492188 9.34375 46.4375 C 9.164063 46.277344 8.929688 46.1875 8.6875 46.1875 C 8.65625 46.1875 8.625 46.1875 8.59375 46.1875 Z"/></svg>